<svg width="213" height="218" viewBox="0 0 213 218" fill="none" xmlns="http://www.w3.org/2000/svg">
<path fill-rule="evenodd" clip-rule="evenodd" d="M169.986 28.5965C119.538 -21.0975 76.568 1.50274 69.0909 39.3625C61.6138 77.2222 -7.8439 84.7815 0.732012 129.499C9.30793 174.217 102.722 147.666 102.722 188.192C102.722 228.717 210.729 227.32 210.729 174.217C210.729 121.115 220.433 78.2906 169.986 28.5965Z" fill="white" fill-opacity="0.2"/>
<mask id="mask0" mask-type="alpha" maskUnits="userSpaceOnUse" x="0" y="0" width="212" height="217">
<path fill-rule="evenodd" clip-rule="evenodd" d="M169.986 28.5965C119.538 -21.0975 76.568 1.50274 69.0909 39.3625C61.6138 77.2222 -7.8439 84.7815 0.732012 129.499C9.30793 174.217 102.722 147.666 102.722 188.192C102.722 228.717 210.729 227.32 210.729 174.217C210.729 121.115 220.433 78.2906 169.986 28.5965Z" fill="white"/>
</mask>
<g mask="url(#mask0)">
<g opacity="0.3">
<rect width="213" height="218" fill="#459EFF"/>
<path opacity="0.2" fill-rule="evenodd" clip-rule="evenodd" d="M107.192 164.19C139.656 164.19 165.974 137.936 165.974 105.551C165.974 73.1651 139.656 46.9114 107.192 46.9114C74.7269 46.9114 48.4091 73.1651 48.4091 105.551C48.4091 137.936 74.7269 164.19 107.192 164.19Z" stroke="white" stroke-width="11"/>
</g>
</g>
</svg>
