<svg width="25" height="20" viewBox="0 0 25 20" fill="none" xmlns="http://www.w3.org/2000/svg">
<path opacity="0.5" d="M17.3014 12.7722C21.798 9.50555 23.4175 8.30129 24.5 7.46876V17.0312C24.5 18.0491 23.6741 18.875 22.6562 18.875H2.34375C1.32595 18.875 0.5 18.0491 0.5 17.0312V7.47341C1.5836 8.30545 3.20752 9.506 7.70373 12.7724C7.84181 12.8732 8.00292 12.9974 8.18164 13.1353C8.61629 13.4705 9.15508 13.8861 9.72005 14.2397C10.5243 14.7432 11.4902 15.197 12.4994 15.1924C13.5151 15.1998 14.493 14.7374 15.3012 14.2303C15.8681 13.8745 16.4076 13.4574 16.8349 13.127C17.0116 12.9904 17.1691 12.8687 17.3014 12.7722ZM12.5086 12.6251L12.5 12.6249L12.4914 12.6251C12.3094 12.6282 12.0706 12.571 11.7777 12.443C11.4896 12.3171 11.1808 12.1368 10.8676 11.9286C10.4502 11.6511 10.0731 11.3593 9.7355 11.098C9.54815 10.953 9.37296 10.8174 9.20982 10.6989L9.20968 10.6988C3.21033 6.34513 2.34936 5.67132 1.0725 4.67203C0.971409 4.59292 0.867711 4.51176 0.758651 4.42658C0.593396 4.29491 0.5 4.10159 0.5 3.89648V2.96875C0.5 1.95095 1.32595 1.125 2.34375 1.125H22.6562C23.6741 1.125 24.5 1.95095 24.5 2.96875V3.89648C24.5 4.10531 24.4038 4.3005 24.2443 4.42429L24.2422 4.42591C24.1578 4.49213 24.0766 4.5559 23.9973 4.61814C22.6805 5.65218 21.8999 6.26513 15.7903 10.6988L15.7902 10.6989C15.627 10.8174 15.4518 10.953 15.2645 11.098C14.9269 11.3593 14.5498 11.6511 14.1324 11.9286C13.8192 12.1368 13.5104 12.3171 13.2223 12.443C12.9294 12.571 12.6906 12.6282 12.5086 12.6251Z" stroke="#18345E"/>
</svg>
