<svg width="25" height="20" viewBox="0 0 25 20" fill="none" xmlns="http://www.w3.org/2000/svg">
<path opacity="0.5" d="M17.7693 13.1245L17.2761 12.7432L15.7409 11.5565L15.4568 11.3368L15.5742 10.9974C15.686 10.6743 15.7453 10.3353 15.7499 9.9934L17.7693 13.1245ZM17.7693 13.1245L18.0344 12.5603M17.7693 13.1245L18.0344 12.5603M18.0344 12.5603C18.3974 11.7878 18.6248 10.9285 18.6249 10.0003M18.0344 12.5603L18.6249 10.0003M12.2558 6.76309C12.5471 6.73635 12.8416 6.74954 13.131 6.8031C13.6233 6.89418 14.0874 7.09945 14.486 7.40242C14.8846 7.70539 15.2066 8.09762 15.4261 8.54761C15.6456 8.99757 15.7565 9.49273 15.7499 9.99332L12.2558 6.76309ZM12.2558 6.76309C12.3338 6.9991 12.3744 7.24742 12.3749 7.49909L12.3749 7.51057L12.3744 7.52203C12.3669 7.69027 12.3412 7.85719 12.2977 8.01986L12.1035 8.7457L11.5089 8.28622L8.63355 6.06396L8.14136 5.68356L8.61869 5.28467C9.70735 4.37491 11.0807 3.87603 12.4995 3.87498L12.4996 3.87498C13.3041 3.87453 14.1008 4.03266 14.8441 4.34033C15.5875 4.64799 16.2629 5.09916 16.8318 5.66804C17.4007 6.23691 17.8518 6.91233 18.1595 7.65569C18.4672 8.39904 18.6253 9.19575 18.6249 10.0003M12.2558 6.76309L18.6249 10.0003M12.4999 16.125L12.5045 16.125C12.799 16.1222 13.0929 16.0983 13.3838 16.0533L14.3887 16.8308C13.7708 16.9389 13.1414 17 12.4999 17C7.89945 17 3.87078 14.3214 1.83146 10.3436C1.77782 10.2371 1.74988 10.1195 1.74988 10.0002C1.74988 9.88086 1.77783 9.76321 1.8315 9.65666C2.13735 9.05952 2.50434 8.49893 2.90955 7.95957L6.44047 10.6884C6.78425 13.7423 9.34679 16.125 12.4999 16.125ZM20.1179 14.1747L19.6442 14.5738L20.1343 14.9526L24.4517 18.2894C24.4518 18.2895 24.4519 18.2895 24.4521 18.2896C24.478 18.31 24.4949 18.3398 24.499 18.3725C24.5032 18.4054 24.4941 18.4386 24.4737 18.4647L23.7066 19.4517L23.7066 19.4518C23.6965 19.4648 23.684 19.4756 23.6697 19.4837C23.6554 19.4918 23.6397 19.4971 23.6234 19.4991C23.6071 19.5012 23.5906 19.5 23.5748 19.4956C23.5589 19.4913 23.5441 19.4838 23.5311 19.4737L23.5298 19.4727L0.548205 1.71075C0.548083 1.71066 0.547961 1.71056 0.547839 1.71047C0.52188 1.69012 0.505007 1.66034 0.500909 1.6276C0.496792 1.59471 0.505908 1.56153 0.526252 1.53536L0.526356 1.53523L1.29311 0.54818C1.29312 0.54816 1.29314 0.548139 1.29315 0.548119C1.30322 0.535178 1.31574 0.524345 1.32999 0.516235C1.34426 0.508113 1.36 0.502884 1.37629 0.500845C1.39259 0.498806 1.40912 0.499998 1.42496 0.504354C1.44079 0.508709 1.45561 0.516141 1.46857 0.526227L1.46857 0.526229L1.46987 0.527228L6.4394 4.36824L6.69798 4.5681L6.98481 4.41146C8.67646 3.48765 10.5726 3.00238 12.5001 2.99998C17.1005 3.00006 21.1291 5.6787 23.1683 9.65654C23.2219 9.76302 23.2498 9.88057 23.2498 9.99978C23.2498 10.119 23.2219 10.2366 23.1683 10.3431C22.4155 11.8098 21.3786 13.1122 20.1179 14.1747Z" stroke="#18345E"/>
</svg>
